# xmcd CD database file
#
# Track frame offsets:
#	150
#	29358
#	55381
#	86478
#	104495
#	139995
#	160910
#	183728
#	203563
#	239431
#	267020
#
# Disc length: 4161 seconds
#
# Revision: 0
# Processed by: cddbd v1.5.1PL0 Copyright (c) Steve Scherf et al.
# Submitted via: CDex 1.50beta10
#
DISCID=9a103f0b
DTITLE=Sarah McLachlan - Bloom
DYEAR=2005
DGENRE=New Age
TTITLE0=World On Fire (Junkie XL club mix/GM edit)
TTITLE1=Ice (Dusted mix)
TTITLE2=Vox (Tom Middleton remix)
TTITLE3=Dirty Little Secret (Thievery Corporation remix)
TTITLE4=Stupid (Hyper remix)
TTITLE5=Train Wreck (Sly and Robbie mix)
TTITLE6=Just Like Me (DMC Featuring Sarah McLachlan) (will.i.am remix) - 
TTITLE7=Answer (Talvin Singh remix)
TTITLE8=Fallen (Gabriel and Dresden anit-gravity mix)
TTITLE9=Fumbling Towards Ecstasy (Junior Boys remix)
TTITLE10=Fallen (satoshi Tomiie Interpretation)
EXTD=YEAR: 2005
EXTT0=
EXTT1=
EXTT2=
EXTT3=
EXTT4=
EXTT5=
EXTT6=
EXTT7=
EXTT8=
EXTT9=
EXTT10=
PLAYORDER=
